<?xml version="1.0" encoding="UTF-8" standalone="no"?>
<!-- Created with Inkscape (http://www.inkscape.org/) -->
<svg xmlns:dc="http://purl.org/dc/elements/1.1/" xmlns:cc="http://creativecommons.org/ns#" xmlns:rdf="http://www.w3.org/1999/02/22-rdf-syntax-ns#" xmlns:svg="http://www.w3.org/2000/svg" xmlns="http://www.w3.org/2000/svg" xmlns:sodipodi="http://sodipodi.sourceforge.net/DTD/sodipodi-0.dtd" xmlns:inkscape="http://www.inkscape.org/namespaces/inkscape" id="svg2" version="1.1" inkscape:version="0.47pre4 r22446" width="750" height="250" xml:space="preserve" sodipodi:docname="LOGO-BLENDER.EPS"><metadata id="metadata8"><rdf:RDF><cc:Work rdf:about=""><dc:format>image/svg+xml</dc:format><dc:type rdf:resource="http://purl.org/dc/dcmitype/StillImage"/><dc:title/></cc:Work></rdf:RDF></metadata><defs id="defs6"><inkscape:perspective sodipodi:type="inkscape:persp3d" inkscape:vp_x="0 : 0.5 : 1" inkscape:vp_y="0 : 1000 : 0" inkscape:vp_z="1 : 0.5 : 1" inkscape:persp3d-origin="0.5 : 0.33333333 : 1" id="perspective10"/></defs><sodipodi:namedview pagecolor="#ffffff" bordercolor="#666666" borderopacity="1" objecttolerance="10" gridtolerance="10" guidetolerance="10" inkscape:pageopacity="0" inkscape:pageshadow="2" inkscape:window-width="1259" inkscape:window-height="977" id="namedview4" showgrid="false" inkscape:zoom="0.89691211" inkscape:cx="518.73756" inkscape:cy="139.30278" inkscape:window-x="21" inkscape:window-y="0" inkscape:window-maximized="1" inkscape:current-layer="g12"/><g id="g12" inkscape:groupmode="layer" inkscape:label="ink_ext_XXXXXX" transform="matrix(1.25,0,0,-1.25,0,250)"><g id="g14" transform="matrix(0.1,0,0,0.1,0,-349.64407)"><path d="m 1128.72,4427.46 c 3.27,58.95 32.19,110.95 75.73,147.81 l 0,0 c 42.8,36.21 100.31,58.3 163.1,58.31 l 0,0 c 62.77,-0.01 120.28,-22.1 163.07,-58.31 l 0,0 c 43.56,-36.86 72.48,-88.85 75.78,-147.79 3.33,-60.65 -21.01,-117 -63.77,-158.71 l 0,0 c -43.57,-42.5 -105.64,-69.18 -175.07,-69.18 l 0,0 c -69.45,0 -131.55,26.68 -175.13,69.18 l 0,0 c -42.76,41.7 -67.08,98.05 -63.71,158.69" style="fill:#0d528b;fill-opacity:1;fill-rule:nonzero;stroke:none" id="path16"/><path d="m 748.27,4308.09 c 0.39,-23.03 7.824,-67.85 18.835,-102.99 l 0,0 c 23.223,-74.12 62.59,-142.76 117.442,-203.28 l 0,0 c 56.25,-62.07 125.413,-112.03 205.403,-147.46 l 0,0 c 84.13,-37.23 175.23,-56.27 269.75,-56.1 l 0,0 c 94.54,0.18 185.63,19.52 269.73,57.03 l 0,0 c 79.93,35.76 149.09,85.84 205.3,148.11 l 0,0 c 54.74,60.73 94.05,129.49 117.3,203.67 l 0,0 c 11.74,37.5 19.06,75.49 22.07,113.68 l 0,0 c 2.94,37.57 1.69,75.27 -3.65,112.87 l 0,0 c -10.4,73.34 -35.8,142.14 -74.83,204.9 -35.81,57.62 -81.85,108.08 -136.59,150.57 l 0,0 0.08,0.08 0,0 -552.63,424.4 0,0 c -0.47,0.38 -0.92,0.77 -1.41,1.15 l 0,0 c -36.34,27.79 -97.31,27.7 -137.16,-0.2 l 0,0 c -40.37,-28.22 -44.9,-74.83 -9.07,-104.33 l 0,0 -0.13,-0.09 0,0 230.51,-187.47 -702.661,-0.76 0,0 c -0.321,0 -0.637,0.02 -0.957,0.02 l 0,0 c -58.059,-0.04 -113.848,-38.22 -124.957,-86.33 l 0,0 c -11.258,-49.07 28.187,-89.76 88.519,-89.99 l 0,0 -0.043,-0.2 0,0 356.098,0.68 -635.528,-487.78 0,0 c -0.804,-0.62 -1.64,-1.2 -2.441,-1.82 l 0,0 c -59.867,-45.9 -79.281,-122.26 -41.562,-170.58 l 0,0 c 38.367,-49.15 119.808,-49.18 180.421,-0.23 l 0,0 346.813,283.81 c 0,0 -5.031,-38.33 -4.652,-61.36 z m 891.23,-128.23 c -71.47,-72.9 -171.44,-114.16 -279.77,-114.33 l 0,0 c -108.37,-0.23 -208.4,40.72 -279.88,113.42 l 0,0 c -34.94,35.45 -60.6,76.13 -76.44,119.61 l 0,0 c -15.496,42.65 -21.519,87.87 -17.558,133.55 l 0,0 c 3.867,44.71 17.058,87.25 38.348,125.82 l 0,0 c 20.86,37.89 49.57,72.11 85.02,101.09 l 0,0 c 69.47,56.64 157.85,87.25 250.42,87.37 l 0,0 c 92.58,0.13 180.96,-30.24 250.42,-86.66 l 0,0 c 35.42,-28.82 64.11,-62.93 84.99,-100.75 l 0,0 c 21.27,-38.51 34.48,-81 38.37,-125.72 l 0,0 c 3.96,-45.63 -2.06,-90.88 -17.56,-133.57 l 0,0 c -15.82,-43.5 -41.47,-84.25 -76.36,-119.83" style="fill:#f5792a;fill-opacity:1;fill-rule:nonzero;stroke:none" id="path18"/><path d="m 4915.21,4428.34 c 5.4,59.57 51.42,97.34 121.72,97.34 70.36,0 116.33,-37.77 121.8,-97.34 l -243.52,0 z m 236.27,-146.98 c -18.05,-44.18 -60.42,-70.29 -118.14,-70.29 -72.18,0 -120.82,45.08 -122.61,116.29 l 414.81,0 c 0,7.37 0,13.49 0,20.9 0,178.35 -104.62,278.59 -292.2,278.59 -182.14,0 -292.16,-101.17 -292.16,-259.85 0,-159.56 111.81,-260.55 292.16,-260.55 108.2,0 192.23,37.03 244.04,102.32 l -125.9,72.59" style="fill:#0d528b;fill-opacity:1;fill-rule:nonzero;stroke:none" id="path20"/><path d="m 3074.09,4428.06 c 5.5,59.55 51.46,97.3 121.81,97.3 70.28,0 116.32,-37.75 121.71,-97.3 l -243.52,0 z m 236.28,-146.99 c -17.99,-44.2 -60.41,-70.32 -118.12,-70.32 -72.12,0 -120.86,45.12 -122.66,116.3 l 414.8,0 c 0,7.4 0,13.51 0,20.93 0,178.32 -104.62,278.58 -292.14,278.58 -182.23,0 -292.12,-101.2 -292.12,-259.85 0,-159.58 111.72,-260.56 292.12,-260.56 108.19,0 192.2,37.03 244.02,102.31 l -125.9,72.61" style="fill:#0d528b;fill-opacity:1;fill-rule:nonzero;stroke:none" id="path22"/><path d="m 2713.26,4122.46 149.672,0 0,612.168 -149.672,0 0,-612.168 z" style="fill:#0d528b;fill-opacity:1;fill-rule:nonzero;stroke:none" id="path24"/><path d="m 3521.61,4572.02 150.46,0 0,-36.47 c 53.39,56.83 117.25,85.56 189.39,85.56 83.16,0 146.08,-28.73 178.59,-77.64 27.06,-40.4 28.87,-89.19 28.87,-153.3 l 0,-267.71 -150.72,0 0,235.27 c 0,97.48 -19.59,142.61 -105.28,142.61 -86.63,0 -140.85,-51.55 -140.85,-138.13 l 0,-239.75 -150.46,0 0,449.56" style="fill:#0d528b;fill-opacity:1;fill-rule:nonzero;stroke:none" id="path26"/><path d="m 4553.42,4359.47 c 0,-83.8 -55.94,-138.78 -142.49,-138.78 -86.63,0 -142.58,53.13 -142.58,137.83 0,85.9 55.09,139.01 142.58,139.01 86.55,0 142.49,-53.98 142.49,-138.06 z m 0,192.12 c -37.9,40.79 -92.95,63.18 -169.56,63.18 -164.92,0 -277.75,-101.87 -277.75,-254.4 0,-149.57 111.91,-254.14 275.04,-254.14 74.87,0 129.87,18.85 172.27,61.31 l 0,-45.08 150.6,0 0,651.02 -150.6,-38.85 0,-183.04" style="fill:#0d528b;fill-opacity:1;fill-rule:nonzero;stroke:none" id="path28"/><path d="m 2371.27,4497.53 c 87.49,0 142.48,-53.11 142.48,-139.01 0,-84.7 -55.89,-137.83 -142.48,-137.83 -86.56,0 -142.48,54.98 -142.48,138.78 0,84.08 55.92,138.06 142.48,138.06 z m -142.48,237.1 -150.62,38.85 0,-651.02 150.62,0 0,45.08 c 42.37,-42.46 97.4,-61.31 172.23,-61.31 163.21,0 275.04,104.57 275.04,254.14 0,152.53 -112.7,254.4 -277.75,254.4 -76.66,0 -131.64,-22.39 -169.52,-63.18 l 0,183.04" style="fill:#0d528b;fill-opacity:1;fill-rule:nonzero;stroke:none" id="path30"/><path d="m 5362.73,4122.46 0,449.56 150.59,0 0,-27.77 c 45.06,54.27 92.82,81.28 146.95,81.28 10.84,0 24.32,-1.73 42.37,-3.54 l 0,-128.12 c -14.41,1.85 -30.63,1.85 -47.76,1.85 -87.5,0 -141.56,-57.71 -141.56,-155.95 l 0,-217.31 -150.59,0" style="fill:#0d528b;fill-opacity:1;fill-rule:nonzero;stroke:none" id="path32"/></g></g></svg>