<?xml version="1.0" encoding="UTF-8" standalone="no"?>
<!-- Created with Inkscape (http://www.inkscape.org/) -->

<svg
   xmlns:dc="http://purl.org/dc/elements/1.1/"
   xmlns:cc="http://creativecommons.org/ns#"
   xmlns:rdf="http://www.w3.org/1999/02/22-rdf-syntax-ns#"
   xmlns:svg="http://www.w3.org/2000/svg"
   xmlns="http://www.w3.org/2000/svg"
   xmlns:xlink="http://www.w3.org/1999/xlink"
   xmlns:sodipodi="http://sodipodi.sourceforge.net/DTD/sodipodi-0.dtd"
   xmlns:inkscape="http://www.inkscape.org/namespaces/inkscape"
   width="742.25439"
   height="490.42398"
   id="svg2"
   version="1.1"
   inkscape:version="0.48.5 r10040"
   sodipodi:docname="workflow.svg">
  <sodipodi:namedview
     id="base"
     pagecolor="#ffffff"
     bordercolor="#666666"
     borderopacity="1.0"
     inkscape:pageopacity="0.0"
     inkscape:pageshadow="2"
     inkscape:zoom="0.98994949"
     inkscape:cx="380.57815"
     inkscape:cy="253.90228"
     inkscape:document-units="px"
     inkscape:current-layer="layer1"
     showgrid="false"
     showguides="true"
     inkscape:guide-bbox="true"
     inkscape:snap-to-guides="true"
     inkscape:window-width="1712"
     inkscape:window-height="1124"
     inkscape:window-x="254"
     inkscape:window-y="115"
     inkscape:window-maximized="0"
     fit-margin-top="4"
     fit-margin-left="4"
     fit-margin-bottom="4"
     fit-margin-right="4">
    <inkscape:grid
       type="xygrid"
       id="grid3808"
       empspacing="5"
       visible="true"
       enabled="true"
       snapvisiblegridlinesonly="true"
       originx="1.2231744px"
       originy="-528.9897px" />
    <sodipodi:guide
       orientation="0,1"
       position="200.50888,290.29602"
       id="guide5006" />
  </sodipodi:namedview>
  <defs
     id="defs4">
    <linearGradient
       inkscape:collect="always"
       id="linearGradient5811">
      <stop
         style="stop-color:#000000;stop-opacity:1;"
         offset="0"
         id="stop5813" />
      <stop
         style="stop-color:#000000;stop-opacity:0;"
         offset="1"
         id="stop5815" />
    </linearGradient>
    <marker
       inkscape:stockid="TriangleOutS"
       orient="auto"
       refY="0"
       refX="0"
       id="TriangleOutS"
       style="overflow:visible">
      <path
         id="path4328"
         d="m 5.77,0 -8.65,5 0,-10 8.65,5 z"
         style="fill-rule:evenodd;stroke:#000000;stroke-width:1pt"
         transform="scale(0.2,0.2)"
         inkscape:connector-curvature="0" />
    </marker>
    <marker
       inkscape:stockid="TriangleOutM"
       orient="auto"
       refY="0"
       refX="0"
       id="TriangleOutM"
       style="overflow:visible">
      <path
         id="path4325"
         d="m 5.77,0 -8.65,5 0,-10 8.65,5 z"
         style="fill-rule:evenodd;stroke:#000000;stroke-width:1pt"
         transform="scale(0.4,0.4)"
         inkscape:connector-curvature="0" />
    </marker>
    <marker
       inkscape:stockid="Arrow2Send"
       orient="auto"
       refY="0"
       refX="0"
       id="Arrow2Send"
       style="overflow:visible">
      <path
         id="path4213"
         style="fill-rule:evenodd;stroke-width:0.625;stroke-linejoin:round"
         d="M 8.7185878,4.0337352 -2.2072895,0.01601326 8.7185884,-4.0017078 c -1.7454984,2.3720609 -1.7354408,5.6174519 -6e-7,8.035443 z"
         transform="matrix(-0.3,0,0,-0.3,0.69,0)"
         inkscape:connector-curvature="0" />
    </marker>
    <marker
       inkscape:stockid="Arrow1Mend"
       orient="auto"
       refY="0"
       refX="0"
       id="Arrow1Mend"
       style="overflow:visible">
      <path
         id="path4189"
         d="M 0,0 5,-5 -12.5,0 5,5 0,0 z"
         style="fill-rule:evenodd;stroke:#000000;stroke-width:1pt"
         transform="matrix(-0.4,0,0,-0.4,-4,0)"
         inkscape:connector-curvature="0" />
    </marker>
    <linearGradient
       inkscape:collect="always"
       xlink:href="#linearGradient5811"
       id="linearGradient5817"
       x1="350"
       y1="462.36218"
       x2="75"
       y2="462.36218"
       gradientUnits="userSpaceOnUse"
       gradientTransform="matrix(1.2291048,0,0,1.2291048,-80.186688,-105.92941)" />
    <marker
       inkscape:stockid="TriangleOutSt"
       orient="auto"
       refY="0"
       refX="0"
       id="TriangleOutSt"
       style="overflow:visible">
      <path
         id="path6243"
         d="m 5.77,0 -8.65,5 0,-10 8.65,5 z"
         style="fill:#1e40ce;fill-rule:evenodd;stroke:#1e40ce;stroke-width:1pt"
         transform="scale(0.2,0.2)"
         inkscape:connector-curvature="0" />
    </marker>
    <marker
       inkscape:stockid="TriangleOutSY"
       orient="auto"
       refY="0"
       refX="0"
       id="TriangleOutSY"
       style="overflow:visible">
      <path
         id="path6565"
         d="m 5.77,0 -8.65,5 0,-10 8.65,5 z"
         style="fill:#1e40ce;fill-rule:evenodd;stroke:#1e40ce;stroke-width:1pt"
         transform="scale(0.2,0.2)"
         inkscape:connector-curvature="0" />
    </marker>
    <marker
       inkscape:stockid="TriangleOutSi"
       orient="auto"
       refY="0"
       refX="0"
       id="TriangleOutSi"
       style="overflow:visible">
      <path
         id="path6568"
         d="m 5.77,0 -8.65,5 0,-10 8.65,5 z"
         style="fill:#1e40ce;fill-rule:evenodd;stroke:#1e40ce;stroke-width:1pt"
         transform="scale(0.2,0.2)"
         inkscape:connector-curvature="0" />
    </marker>
  </defs>
  <metadata
     id="metadata7">
    <rdf:RDF>
      <cc:Work
         rdf:about="">
        <dc:format>image/svg+xml</dc:format>
        <dc:type
           rdf:resource="http://purl.org/dc/dcmitype/StillImage" />
        <dc:title />
      </cc:Work>
    </rdf:RDF>
  </metadata>
  <g
     inkscape:label="Ebene 1"
     inkscape:groupmode="layer"
     id="layer1"
     transform="translate(1.2231744,-32.94853)">
    <text
       xml:space="preserve"
       style="font-size:20px;font-style:normal;font-variant:normal;font-weight:normal;font-stretch:normal;text-align:center;line-height:114.99999762%;letter-spacing:0px;word-spacing:0px;writing-mode:lr-tb;text-anchor:middle;fill:#000000;fill-opacity:1;stroke:none;font-family:DejaVu Sans;-inkscape-font-specification:DejaVu Sans"
       x="75.403542"
       y="128.99995"
       id="text3764"
       sodipodi:linespacing="115%"><tspan
         sodipodi:role="line"
         id="tspan3766"
         x="75.403542"
         y="128.99995">Poweruser</tspan></text>
    <text
       xml:space="preserve"
       style="font-size:20px;font-style:normal;font-variant:normal;font-weight:normal;font-stretch:normal;text-align:center;line-height:114.99999762%;letter-spacing:0px;word-spacing:0px;writing-mode:lr-tb;text-anchor:middle;fill:#000000;fill-opacity:1;stroke:none;font-family:DejaVu Sans;-inkscape-font-specification:DejaVu Sans"
       x="155.96681"
       y="67.614723"
       id="text3768"
       sodipodi:linespacing="115%"><tspan
         sodipodi:role="line"
         id="tspan3770"
         x="155.96681"
         y="67.614723">Entwickler</tspan></text>
    <g
       id="g4990"
       transform="translate(-27.857144,80.71428)">
      <g
         transform="matrix(0.25440855,0,0,0.25440855,184.24151,75.979311)"
         id="g3759">
        <path
           sodipodi:type="arc"
           style="fill:none;stroke:#000000;stroke-width:10;stroke-miterlimit:4;stroke-opacity:1;stroke-dasharray:none"
           id="path2985"
           sodipodi:cx="258.09396"
           sodipodi:cy="135.64874"
           sodipodi:rx="62.124382"
           sodipodi:ry="62.124382"
           d="m 320.21835,135.64874 c 0,34.31035 -27.81404,62.12438 -62.12439,62.12438 -34.31035,0 -62.12438,-27.81403 -62.12438,-62.12438 0,-34.31035 27.81403,-62.124379 62.12438,-62.124379 34.31035,0 62.12439,27.814029 62.12439,62.124379 z" />
        <text
           xml:space="preserve"
           style="font-size:18.10965538px;font-style:normal;font-variant:normal;font-weight:normal;font-stretch:normal;text-align:center;line-height:114.99999762%;letter-spacing:0px;word-spacing:0px;writing-mode:lr-tb;text-anchor:middle;fill:#000000;fill-opacity:1;stroke:none;font-family:BN Elements;-inkscape-font-specification:BN Elements"
           x="258.47595"
           y="182.31648"
           id="text3755"
           sodipodi:linespacing="115%"><tspan
             sodipodi:role="line"
             id="tspan3757"
             x="258.47595"
             y="182.31648"
             style="font-size:130.38952637px;font-style:normal;font-variant:normal;font-weight:bold;font-stretch:normal;font-family:Arial;-inkscape-font-specification:Arial Bold">!</tspan></text>
      </g>
      <text
         sodipodi:linespacing="115%"
         id="text3776"
         y="152.36218"
         x="249.4536"
         style="font-size:20px;font-style:normal;font-variant:normal;font-weight:normal;font-stretch:normal;text-align:center;line-height:114.99999762%;letter-spacing:0px;word-spacing:0px;writing-mode:lr-tb;text-anchor:middle;fill:#000000;fill-opacity:1;stroke:none;font-family:DejaVu Sans;-inkscape-font-specification:DejaVu Sans"
         xml:space="preserve"><tspan
           y="152.36218"
           x="249.4536"
           id="tspan3778"
           sodipodi:role="line">Issue</tspan></text>
    </g>
    <text
       xml:space="preserve"
       style="font-size:20px;font-style:normal;font-variant:normal;font-weight:normal;font-stretch:normal;text-align:center;line-height:114.99999762%;letter-spacing:0px;word-spacing:0px;writing-mode:lr-tb;text-anchor:middle;fill:#000000;fill-opacity:1;stroke:none;font-family:DejaVu Sans;-inkscape-font-specification:DejaVu Sans"
       x="221.97243"
       y="314.50504"
       id="text3780"
       sodipodi:linespacing="115%"><tspan
         sodipodi:role="line"
         id="tspan3782"
         x="221.97243"
         y="314.50504">Diskussion,</tspan><tspan
         sodipodi:role="line"
         x="221.97243"
         y="337.50504"
         id="tspan4998">Konkretisierung</tspan></text>
    <text
       xml:space="preserve"
       style="font-size:20px;font-style:normal;font-variant:normal;font-weight:normal;font-stretch:normal;text-align:center;line-height:114.99999762%;letter-spacing:0px;word-spacing:0px;writing-mode:lr-tb;text-anchor:middle;fill:#000000;fill-opacity:1;stroke:none;font-family:DejaVu Sans;-inkscape-font-specification:DejaVu Sans"
       x="468.30008"
       y="314.50504"
       id="text3792"
       sodipodi:linespacing="115%"><tspan
         sodipodi:role="line"
         x="468.30008"
         y="314.50504"
         id="tspan3798">Code-Review,</tspan><tspan
         sodipodi:role="line"
         x="468.30008"
         y="337.50504"
         id="tspan3802">Diskussion,</tspan><tspan
         sodipodi:role="line"
         x="468.30008"
         y="360.50504"
         id="tspan3796">Anpassung</tspan></text>
    <text
       xml:space="preserve"
       style="font-size:20px;font-style:normal;font-variant:normal;font-weight:normal;font-stretch:normal;text-align:center;line-height:114.99999762%;letter-spacing:0px;word-spacing:0px;writing-mode:lr-tb;text-anchor:middle;fill:#000000;fill-opacity:1;stroke:none;font-family:DejaVu Sans;-inkscape-font-specification:DejaVu Sans"
       x="641.42859"
       y="439.50504"
       id="text3804"
       sodipodi:linespacing="115%"><tspan
         sodipodi:role="line"
         id="tspan3806"
         x="641.42859"
         y="439.50504">Merge</tspan></text>
    <path
       style="fill:none;stroke:#000000;stroke-width:5;stroke-linecap:butt;stroke-linejoin:bevel;stroke-miterlimit:4;stroke-opacity:1;stroke-dasharray:none;stroke-dashoffset:0;marker-end:url(#TriangleOutS)"
       d="m 350,462.36218 220,0"
       id="path3810"
       inkscape:connector-curvature="0"
       sodipodi:nodetypes="cc" />
    <path
       style="fill:none;stroke:#000000;stroke-width:5;stroke-linecap:butt;stroke-linejoin:bevel;stroke-miterlimit:4;stroke-opacity:1;stroke-dasharray:none;stroke-dashoffset:0;marker-start:none;marker-end:url(#TriangleOutS)"
       d="m 605,462.36218 125,0"
       id="path3812"
       inkscape:connector-curvature="0"
       sodipodi:nodetypes="cc" />
    <path
       sodipodi:type="arc"
       style="fill:none;stroke:#000000;stroke-width:3;stroke-linecap:round;stroke-linejoin:bevel;stroke-miterlimit:4;stroke-opacity:1;stroke-dasharray:none;stroke-dashoffset:0"
       id="path3814"
       sodipodi:cx="590"
       sodipodi:cy="462.36218"
       sodipodi:rx="10"
       sodipodi:ry="10"
       d="m 600,462.36218 c 0,5.52285 -4.47715,10 -10,10 -5.52285,0 -10,-4.47715 -10,-10 0,-5.52284 4.47715,-10 10,-10 5.52285,0 10,4.47716 10,10 z"
       transform="translate(5,0)" />
    <g
       id="g5419"
       transform="translate(78.571429,0.71428)">
      <text
         sodipodi:linespacing="115%"
         id="text3788"
         y="232.36218"
         x="388.57141"
         style="font-size:20px;font-style:normal;font-variant:normal;font-weight:normal;font-stretch:normal;text-align:center;line-height:114.99999762%;letter-spacing:0px;word-spacing:0px;writing-mode:lr-tb;text-anchor:middle;fill:#000000;fill-opacity:1;stroke:none;font-family:DejaVu Sans;-inkscape-font-specification:DejaVu Sans"
         xml:space="preserve"><tspan
           y="232.36218"
           x="388.57141"
           id="tspan3790"
           sodipodi:role="line">Pull Request</tspan></text>
      <g
         transform="translate(197.79087,0.7142857)"
         id="g5394">
        <path
           sodipodi:type="arc"
           style="fill:none;stroke:#000000;stroke-width:1.5;stroke-linecap:round;stroke-linejoin:bevel;stroke-miterlimit:4;stroke-opacity:1;stroke-dasharray:none;stroke-dashoffset:0"
           id="path5002"
           sodipodi:cx="219.01785"
           sodipodi:cy="175.30861"
           sodipodi:rx="3.4821427"
           sodipodi:ry="3.4821427"
           d="m 222.5,175.30861 c 0,1.92313 -1.55901,3.48214 -3.48215,3.48214 -1.92313,0 -3.48214,-1.55901 -3.48214,-3.48214 0,-1.92314 1.55901,-3.48214 3.48214,-3.48214 1.92314,0 3.48215,1.559 3.48215,3.48214 z"
           transform="translate(-37.410707,2.5000036)" />
        <path
           transform="translate(-37.410707,28.035718)"
           d="m 222.5,175.30861 c 0,1.92313 -1.55901,3.48214 -3.48215,3.48214 -1.92313,0 -3.48214,-1.55901 -3.48214,-3.48214 0,-1.92314 1.55901,-3.48214 3.48214,-3.48214 1.92314,0 3.48215,1.559 3.48215,3.48214 z"
           sodipodi:ry="3.4821427"
           sodipodi:rx="3.4821427"
           sodipodi:cy="175.30861"
           sodipodi:cx="219.01785"
           id="path5008"
           style="fill:none;stroke:#000000;stroke-width:1.5;stroke-linecap:round;stroke-linejoin:bevel;stroke-miterlimit:4;stroke-opacity:1;stroke-dasharray:none;stroke-dashoffset:0"
           sodipodi:type="arc" />
        <path
           sodipodi:type="arc"
           style="fill:none;stroke:#000000;stroke-width:1.5;stroke-linecap:round;stroke-linejoin:bevel;stroke-miterlimit:4;stroke-opacity:1;stroke-dasharray:none;stroke-dashoffset:0"
           id="path5010"
           sodipodi:cx="219.01785"
           sodipodi:cy="175.30861"
           sodipodi:rx="3.4821427"
           sodipodi:ry="3.4821427"
           d="m 222.5,175.30861 c 0,1.92313 -1.55901,3.48214 -3.48215,3.48214 -1.92313,0 -3.48214,-1.55901 -3.48214,-3.48214 0,-1.92314 1.55901,-3.48214 3.48214,-3.48214 1.92314,0 3.48215,1.559 3.48215,3.48214 z"
           transform="translate(-17.589278,28.035718)" />
        <path
           style="fill:none;stroke:#000000;stroke-width:3;stroke-linecap:butt;stroke-linejoin:bevel;stroke-miterlimit:4;stroke-opacity:1;stroke-dasharray:none;stroke-dashoffset:0"
           d="m 181.42857,181.18615 0,18.42349"
           id="path5012"
           inkscape:connector-curvature="0"
           sodipodi:nodetypes="cc" />
        <path
           style="fill:none;stroke:#000000;stroke-width:3;stroke-linecap:round;stroke-linejoin:bevel;stroke-miterlimit:4;stroke-opacity:1;stroke-dasharray:none;stroke-dashoffset:0;marker-end:url(#TriangleOutS)"
           d="m 201.28063,199.07393 0,-14.22598 c 0,-9.09927 -6.59047,-7.12863 -11.01169,-7.12863"
           id="path5014"
           inkscape:connector-curvature="0"
           sodipodi:nodetypes="ccc" />
      </g>
    </g>
    <path
       style="fill:none;stroke:url(#linearGradient5817);stroke-width:5;stroke-linecap:butt;stroke-linejoin:bevel;stroke-miterlimit:4;stroke-opacity:1;stroke-dasharray:none;stroke-dashoffset:0"
       d="m 11.996173,462.36218 338.003827,0"
       id="path5809"
       inkscape:connector-curvature="0" />
    <path
       style="fill:#1e40ce;fill-opacity:1;stroke:#1e40ce;stroke-width:5;stroke-linecap:round;stroke-linejoin:bevel;stroke-miterlimit:4;stroke-opacity:1;stroke-dasharray:none;stroke-dashoffset:0;marker-end:url(#TriangleOutSY)"
       d="M 157.07723,76.821211 207.23105,164.1547"
       id="path5819"
       inkscape:connector-curvature="0"
       sodipodi:nodetypes="cc" />
    <path
       style="fill:#1e40ce;fill-opacity:1;stroke:#1e40ce;stroke-width:5;stroke-linecap:round;stroke-linejoin:bevel;stroke-miterlimit:4;stroke-opacity:1;stroke-dasharray:none;stroke-dashoffset:0;marker-end:url(#TriangleOutSi)"
       d="m 103.01559,136.43869 91.85442,42.81382"
       id="path5821"
       inkscape:connector-curvature="0"
       sodipodi:nodetypes="cc" />
    <path
       style="fill:none;stroke:#000000;stroke-width:5;stroke-linecap:butt;stroke-linejoin:bevel;stroke-miterlimit:4;stroke-opacity:1;stroke-dasharray:none;stroke-dashoffset:0;marker-end:url(#TriangleOutS)"
       d="m 487.85714,190.54578 74.30002,0 c 35.35895,0 32.22501,24.65093 32.22501,43.6098 l 0,203.92088"
       id="path5827"
       inkscape:connector-curvature="0"
       sodipodi:nodetypes="cccc" />
    <path
       style="fill:none;stroke:#1e40ce;stroke-width:5;stroke-linecap:butt;stroke-linejoin:bevel;stroke-miterlimit:4;stroke-opacity:1;stroke-dasharray:none;stroke-dashoffset:0;marker-end:url(#TriangleOutSt)"
       d="m 212.13204,245.19829 c -49.49748,56.06347 63.6396,64.70177 18.68781,0.052"
       id="path6019"
       inkscape:connector-curvature="0"
       sodipodi:nodetypes="cc" />
    <path
       sodipodi:nodetypes="cc"
       inkscape:connector-curvature="0"
       id="path6353"
       d="m 460.62957,245.19829 c -49.49748,56.06347 63.6396,64.70177 18.68781,0.052"
       style="fill:none;stroke:#1e40ce;stroke-width:5;stroke-linecap:butt;stroke-linejoin:bevel;stroke-miterlimit:4;stroke-opacity:1;stroke-dasharray:none;stroke-dashoffset:0;marker-end:url(#TriangleOutSt)" />
    <path
       inkscape:connector-curvature="0"
       id="path6681"
       d="m 245.46558,190.39954 195.39017,0"
       style="fill:#1e40ce;fill-opacity:1;stroke:#1e40ce;stroke-width:5;stroke-linecap:butt;stroke-linejoin:bevel;stroke-miterlimit:4;stroke-opacity:1;stroke-dasharray:none;stroke-dashoffset:0;marker-end:url(#TriangleOutSY)"
       sodipodi:nodetypes="cc" />
    <g
       id="g7123"
       transform="translate(-1.5778091,26.428571)">
      <text
         xml:space="preserve"
         style="font-size:20px;font-style:normal;font-variant:normal;font-weight:normal;font-stretch:normal;text-align:center;line-height:114.99999762%;letter-spacing:0px;word-spacing:0px;writing-mode:lr-tb;text-anchor:middle;fill:#000000;fill-opacity:1;stroke:none;font-family:DejaVu Sans;-inkscape-font-specification:DejaVu Sans"
         x="345.71429"
         y="155.93362"
         id="text5429"
         sodipodi:linespacing="115%"><tspan
           sodipodi:role="line"
           id="tspan5431"
           x="345.71429"
           y="155.93362">Entwickler</tspan></text>
      <path
         d="m 346.64305,89.949183 c -3.6971,0 -6.72353,3.004893 -6.72353,6.701928 0,3.697039 3.02643,6.702139 6.72353,6.702139 3.69711,0 6.70204,-3.00492 6.70204,-6.702139 0,-3.697215 -3.00497,-6.701928 -6.70204,-6.701928 z m -6.33689,13.038887 c -1.86908,0.38054 -3.24376,2.01046 -3.24362,3.99552 v 10.31081 c -1.8e-4,1.98503 1.37422,3.63634 3.24362,4.01688 h 0.19333 v 12.91003 c 0,1.18999 0.95809,2.14815 2.14811,2.14815 h 8.0768 c 1.19006,0 2.14812,-0.95816 2.14808,-2.14815 v -12.91003 h 0.15039 c 0.0176,0.0151 0.0327,-0.0151 0.0429,0 1.86908,-0.38054 3.24381,-2.03203 3.24363,-4.01688 v -10.31081 c 1.8e-4,-1.98506 -1.37419,-3.61498 -3.24363,-3.99552 -1.48244,1.88289 -3.79896,3.11466 -6.37982,3.11466 -2.58085,0 -4.83331,-1.23177 -6.31539,-3.11466 -0.0176,-0.0151 -0.0539,0.0151 -0.0644,0 z"
         id="path38"
         inkscape:connector-curvature="0"
         style="fill:#cacaca;fill-opacity:1" />
    </g>
    <path
       d="m 90.928764,36.94853 c -3.6971,0 -6.72353,3.004893 -6.72353,6.701928 0,3.697039 3.02643,6.702139 6.72353,6.702139 3.69711,0 6.70204,-3.00492 6.70204,-6.702139 0,-3.697215 -3.00497,-6.701928 -6.70204,-6.701928 z m -6.33689,13.038887 c -1.86908,0.38054 -3.24376,2.01046 -3.24362,3.99552 v 10.31081 c -1.8e-4,1.98503 1.37422,3.63634 3.24362,4.01688 h 0.19333 v 12.91003 c 0,1.18999 0.95809,2.14815 2.14811,2.14815 h 8.0768 c 1.19006,0 2.14812,-0.95816 2.14808,-2.14815 v -12.91003 h 0.15039 c 0.0176,0.0151 0.0327,-0.0151 0.0429,0 1.86908,-0.38054 3.243806,-2.03203 3.243626,-4.01688 v -10.31081 c 1.8e-4,-1.98506 -1.374186,-3.61498 -3.243626,-3.99552 -1.48244,1.88289 -3.79896,3.11466 -6.37982,3.11466 -2.58085,0 -4.83331,-1.23177 -6.31539,-3.11466 -0.0176,-0.0151 -0.0539,0.0151 -0.0644,0 z"
       id="path6692"
       inkscape:connector-curvature="0"
       style="fill:#cacaca;fill-opacity:1" />
    <path
       style="fill:#cacaca;fill-opacity:1"
       inkscape:connector-curvature="0"
       id="path6694"
       d="m 12.357336,98.64138 c -3.6971003,0 -6.7235303,3.00489 -6.7235303,6.70193 0,3.69703 3.02643,6.70213 6.7235303,6.70213 3.69711,0 6.70204,-3.00492 6.70204,-6.70213 0,-3.69722 -3.00497,-6.70193 -6.70204,-6.70193 z m -6.3368903,13.03888 c -1.86908,0.38054 -3.2437601,2.01046 -3.2436201,3.99552 v 10.31081 c -1.8e-4,1.98503 1.3742201,3.63634 3.2436201,4.01688 h 0.19333 v 12.91003 c 0,1.18999 0.95809,2.14815 2.14811,2.14815 h 8.0768003 c 1.19006,0 2.14812,-0.95816 2.14808,-2.14815 v -12.91003 h 0.15039 c 0.0176,0.0151 0.0327,-0.0151 0.0429,0 1.86908,-0.38054 3.24381,-2.03203 3.24363,-4.01688 v -10.31081 c 1.8e-4,-1.98506 -1.37419,-3.61498 -3.24363,-3.99552 -1.48244,1.88289 -3.79896,3.11466 -6.37982,3.11466 -2.5808503,0 -4.8333103,-1.23177 -6.3153903,-3.11466 -0.0176,-0.0151 -0.0539,0.0151 -0.0644,0 z" />
    <g
       id="g6702"
       transform="translate(5.7168446,3.5714286)">
      <path
         style="fill:#cacaca;fill-opacity:1"
         inkscape:connector-curvature="0"
         id="path6696"
         d="m 188.07162,342.09204 c -3.6971,0 -6.72353,3.00489 -6.72353,6.70193 0,3.69704 3.02643,6.70214 6.72353,6.70214 3.69711,0 6.70204,-3.00492 6.70204,-6.70214 0,-3.69722 -3.00497,-6.70193 -6.70204,-6.70193 z m -6.33689,13.03889 c -1.86908,0.38054 -3.24376,2.01046 -3.24362,3.99552 v 10.31081 c -1.8e-4,1.98503 1.37422,3.63634 3.24362,4.01688 h 0.19333 v 12.91003 c 0,1.18999 0.95809,2.14815 2.14811,2.14815 h 8.0768 c 1.19006,0 2.14812,-0.95816 2.14808,-2.14815 v -12.91003 h 0.15039 c 0.0176,0.0151 0.0327,-0.0151 0.0429,0 1.86908,-0.38054 3.24381,-2.03203 3.24363,-4.01688 v -10.31081 c 1.8e-4,-1.98506 -1.37419,-3.61498 -3.24363,-3.99552 -1.48244,1.88289 -3.79896,3.11466 -6.37982,3.11466 -2.58085,0 -4.83331,-1.23177 -6.31539,-3.11466 -0.0176,-0.0151 -0.0539,0.0151 -0.0644,0 z" />
      <path
         d="m 216.2859,342.09204 c -3.6971,0 -6.72353,3.00489 -6.72353,6.70193 0,3.69704 3.02643,6.70214 6.72353,6.70214 3.69711,0 6.70204,-3.00492 6.70204,-6.70214 0,-3.69722 -3.00497,-6.70193 -6.70204,-6.70193 z m -6.33689,13.03889 c -1.86908,0.38054 -3.24376,2.01046 -3.24362,3.99552 v 10.31081 c -1.8e-4,1.98503 1.37422,3.63634 3.24362,4.01688 h 0.19333 v 12.91003 c 0,1.18999 0.95809,2.14815 2.14811,2.14815 h 8.0768 c 1.19006,0 2.14812,-0.95816 2.14808,-2.14815 v -12.91003 h 0.15039 c 0.0176,0.0151 0.0327,-0.0151 0.0429,0 1.86908,-0.38054 3.24381,-2.03203 3.24363,-4.01688 v -10.31081 c 1.8e-4,-1.98506 -1.37419,-3.61498 -3.24363,-3.99552 -1.48244,1.88289 -3.79896,3.11466 -6.37982,3.11466 -2.58085,0 -4.83331,-1.23177 -6.31539,-3.11466 -0.0176,-0.0151 -0.0539,0.0151 -0.0644,0 z"
         id="path6698"
         inkscape:connector-curvature="0"
         style="fill:#cacaca;fill-opacity:1" />
      <path
         style="fill:#cacaca;fill-opacity:1"
         inkscape:connector-curvature="0"
         id="path6700"
         d="m 244.50019,342.09204 c -3.6971,0 -6.72353,3.00489 -6.72353,6.70193 0,3.69704 3.02643,6.70214 6.72353,6.70214 3.69711,0 6.70204,-3.00492 6.70204,-6.70214 0,-3.69722 -3.00497,-6.70193 -6.70204,-6.70193 z m -6.33689,13.03889 c -1.86908,0.38054 -3.24376,2.01046 -3.24362,3.99552 v 10.31081 c -1.8e-4,1.98503 1.37422,3.63634 3.24362,4.01688 h 0.19333 v 12.91003 c 0,1.18999 0.95809,2.14815 2.14811,2.14815 h 8.0768 c 1.19006,0 2.14812,-0.95816 2.14808,-2.14815 v -12.91003 h 0.15039 c 0.0176,0.0151 0.0327,-0.0151 0.0429,0 1.86908,-0.38054 3.24381,-2.03203 3.24363,-4.01688 v -10.31081 c 1.8e-4,-1.98506 -1.37419,-3.61498 -3.24363,-3.99552 -1.48244,1.88289 -3.79896,3.11466 -6.37982,3.11466 -2.58085,0 -4.83331,-1.23177 -6.31539,-3.11466 -0.0176,-0.0151 -0.0539,0.0151 -0.0644,0 z" />
    </g>
    <g
       transform="translate(251.55133,28.571429)"
       id="g6707">
      <path
         d="m 188.07162,342.09204 c -3.6971,0 -6.72353,3.00489 -6.72353,6.70193 0,3.69704 3.02643,6.70214 6.72353,6.70214 3.69711,0 6.70204,-3.00492 6.70204,-6.70214 0,-3.69722 -3.00497,-6.70193 -6.70204,-6.70193 z m -6.33689,13.03889 c -1.86908,0.38054 -3.24376,2.01046 -3.24362,3.99552 v 10.31081 c -1.8e-4,1.98503 1.37422,3.63634 3.24362,4.01688 h 0.19333 v 12.91003 c 0,1.18999 0.95809,2.14815 2.14811,2.14815 h 8.0768 c 1.19006,0 2.14812,-0.95816 2.14808,-2.14815 v -12.91003 h 0.15039 c 0.0176,0.0151 0.0327,-0.0151 0.0429,0 1.86908,-0.38054 3.24381,-2.03203 3.24363,-4.01688 v -10.31081 c 1.8e-4,-1.98506 -1.37419,-3.61498 -3.24363,-3.99552 -1.48244,1.88289 -3.79896,3.11466 -6.37982,3.11466 -2.58085,0 -4.83331,-1.23177 -6.31539,-3.11466 -0.0176,-0.0151 -0.0539,0.0151 -0.0644,0 z"
         id="path6709"
         inkscape:connector-curvature="0"
         style="fill:#cacaca;fill-opacity:1" />
      <path
         style="fill:#cacaca;fill-opacity:1"
         inkscape:connector-curvature="0"
         id="path6711"
         d="m 216.2859,342.09204 c -3.6971,0 -6.72353,3.00489 -6.72353,6.70193 0,3.69704 3.02643,6.70214 6.72353,6.70214 3.69711,0 6.70204,-3.00492 6.70204,-6.70214 0,-3.69722 -3.00497,-6.70193 -6.70204,-6.70193 z m -6.33689,13.03889 c -1.86908,0.38054 -3.24376,2.01046 -3.24362,3.99552 v 10.31081 c -1.8e-4,1.98503 1.37422,3.63634 3.24362,4.01688 h 0.19333 v 12.91003 c 0,1.18999 0.95809,2.14815 2.14811,2.14815 h 8.0768 c 1.19006,0 2.14812,-0.95816 2.14808,-2.14815 v -12.91003 h 0.15039 c 0.0176,0.0151 0.0327,-0.0151 0.0429,0 1.86908,-0.38054 3.24381,-2.03203 3.24363,-4.01688 v -10.31081 c 1.8e-4,-1.98506 -1.37419,-3.61498 -3.24363,-3.99552 -1.48244,1.88289 -3.79896,3.11466 -6.37982,3.11466 -2.58085,0 -4.83331,-1.23177 -6.31539,-3.11466 -0.0176,-0.0151 -0.0539,0.0151 -0.0644,0 z" />
      <path
         d="m 244.50019,342.09204 c -3.6971,0 -6.72353,3.00489 -6.72353,6.70193 0,3.69704 3.02643,6.70214 6.72353,6.70214 3.69711,0 6.70204,-3.00492 6.70204,-6.70214 0,-3.69722 -3.00497,-6.70193 -6.70204,-6.70193 z m -6.33689,13.03889 c -1.86908,0.38054 -3.24376,2.01046 -3.24362,3.99552 v 10.31081 c -1.8e-4,1.98503 1.37422,3.63634 3.24362,4.01688 h 0.19333 v 12.91003 c 0,1.18999 0.95809,2.14815 2.14811,2.14815 h 8.0768 c 1.19006,0 2.14812,-0.95816 2.14808,-2.14815 v -12.91003 h 0.15039 c 0.0176,0.0151 0.0327,-0.0151 0.0429,0 1.86908,-0.38054 3.24381,-2.03203 3.24363,-4.01688 v -10.31081 c 1.8e-4,-1.98506 -1.37419,-3.61498 -3.24363,-3.99552 -1.48244,1.88289 -3.79896,3.11466 -6.37982,3.11466 -2.58085,0 -4.83331,-1.23177 -6.31539,-3.11466 -0.0176,-0.0151 -0.0539,0.0151 -0.0644,0 z"
         id="path6713"
         inkscape:connector-curvature="0"
         style="fill:#cacaca;fill-opacity:1" />
    </g>
    <text
       xml:space="preserve"
       style="font-size:20px;font-style:normal;font-variant:normal;font-weight:200;font-stretch:normal;text-align:start;line-height:114.99999762%;letter-spacing:0px;word-spacing:0px;writing-mode:lr-tb;text-anchor:start;fill:#000000;fill-opacity:1;stroke:none;font-family:DejaVu Sans;-inkscape-font-specification:DejaVu Sans Ultra-Light"
       x="559.32654"
       y="496.08929"
       id="text7128"
       sodipodi:linespacing="115%"><tspan
         sodipodi:role="line"
         id="tspan7130"
         x="559.32654"
         y="496.08929"
         style="font-size:20px;font-style:normal;font-variant:normal;font-weight:normal;font-stretch:normal;text-align:start;line-height:114.99999762%;writing-mode:lr-tb;text-anchor:start;font-family:DejaVu Sans;-inkscape-font-specification:DejaVu Sans">+ Changelog</tspan><tspan
         sodipodi:role="line"
         x="559.32654"
         y="519.08929"
         id="tspan7132"
         style="font-size:20px;font-style:normal;font-variant:normal;font-weight:normal;font-stretch:normal;text-align:start;line-height:114.99999762%;writing-mode:lr-tb;text-anchor:start;font-family:DejaVu Sans;-inkscape-font-specification:DejaVu Sans">+ Issue closed</tspan></text>
  </g>
</svg>
